Coordinates
version=1
nRows=26
nColumns=24
inDegrees=yes

Units are S.I. units (second, meters, Newtons, ...)
Angles are in degrees.

endheader
time	pelvis_tilt	pelvis_list	pelvis_rotation	pelvis_tx	pelvis_ty	pelvis_tz	hip_flexion_r	hip_adduction_r	hip_rotation_r	knee_angle_r	ankle_angle_r	subtalar_angle_r	mtp_angle_r	hip_flexion_l	hip_adduction_l	hip_rotation_l	knee_angle_l	ankle_angle_l	subtalar_angle_l	mtp_angle_l	lumbar_extension	lumbar_bending	lumbar_rotation
      3.92000000	    -12.41564564	      9.11079619	     -3.69521923	     -0.90818271	     -0.03903930	     -0.26886383	     14.94507975	    -13.66993885	     -5.27109965	    -58.49638105	    -26.88744516	    -12.49705100	     21.62510834	     30.97957430	     10.65648590	     -7.97771505	    -22.43518628	     -2.62473060	    -18.43729739	     -3.86251070	      9.42330535	     -8.64270101	      7.25733346
      3.92500000	    -12.40407768	      9.01800851	     -3.57339185	     -0.90090457	     -0.03785508	     -0.26935575	     15.96324959	    -13.53531010	     -5.11840529	    -59.60222322	    -25.81813093	    -13.11696601	     21.57172099	     30.32670358	     10.70798856	     -7.83631626	    -22.19756011	     -2.21765735	    -18.16180724	     -3.50009848	      9.33903774	     -8.58326236	      6.98015715
      3.93000000	    -12.40683818	      8.85332986	     -3.48826932	     -0.89367506	     -0.03665697	     -0.26984907	     16.99189948	    -13.31649893	     -4.97263584	    -60.59963960	    -24.70162432	    -13.56892275	     21.57106168	     29.69180106	     10.66601049	     -7.71129428	    -21.97262034	     -1.76832352	    -17.88004311	     -3.10664874	      9.27038680	     -8.42872759	      6.76204817
      3.93500000	    -12.44486249	      8.64914780	     -3.47371718	     -0.88655091	     -0.03547790	     -0.27026208	     18.09100300	    -13.02505102	     -4.78649829	    -61.52702633	    -23.57176111	    -13.90272535	     21.20642055	     29.09758181	     10.54163474	     -7.63214887	    -21.72048814	     -1.49649791	    -17.74528057	     -2.21270402	      9.23910774	     -8.21208484	      6.63319847
      3.94000000	    -12.38045882	      8.43874530	     -3.31989869	     -0.87923722	     -0.03414149	     -0.27088681	     18.95635748	    -12.81675045	     -4.82282881	    -62.25605325	    -22.50113262	    -14.15248893	     21.38969728	     28.34707962	     10.51190369	     -7.35683145	    -21.43615766	     -1.09989417	    -17.53523577	     -1.98210430	      9.10974039	     -8.01908745	      6.31277066
      3.94500000	    -12.34138932	      8.17348287	     -3.22913802	     -0.87206017	     -0.03282302	     -0.27144365	     19.86622397	    -12.51633258	     -4.79537835	    -62.90132014	    -21.44186272	    -14.22468167	     21.61296285	     27.64317541	     10.38893786	     -7.11427960	    -21.17275641	     -0.72643064	    -17.36266459	     -1.76676188	      8.99631742	     -7.74728094	      6.05650300
      3.95000000	    -12.30935455	      7.90795794	     -3.12182562	     -0.86491275	     -0.03152957	     -0.27203314	     20.76489983	    -12.23339900	     -4.81379426	    -63.44950340	    -20.40468924	    -14.20002340	     21.86947341	     26.94467962	     10.27277293	     -6.85012593	    -20.89574895	     -0.38742699	    -17.21505500	     -1.57584057	      8.89158973	     -7.47603836	      5.78294578
      3.95500000	    -12.27349672	      7.62392875	     -3.00127086	     -0.85778605	     -0.03024291	     -0.27264467	     21.63264274	    -11.94275319	     -4.87115308	    -63.89412766	    -19.38990477	    -14.07514222	     22.16104182	     26.23830858	     10.14614899	     -6.54563130	    -20.60892277	     -0.08511538	    -17.12071262	     -1.42524833	      8.78159182	     -7.18524780	      5.49139611
      3.96000000	    -12.23182065	      7.33887075	     -2.84566922	     -0.85069109	     -0.02898054	     -0.27329669	     22.46187340	    -11.67345353	     -4.98295851	    -64.24168429	    -18.35821130	    -13.85694093	     22.51459807	     25.52580949	     10.03375625	     -6.19908326	    -20.31574965	      0.17008012	    -17.06678257	     -1.31798398	      8.65786221	     -6.89909824	      5.17642531
      3.96500000	    -12.18494297	      7.03004947	     -2.68451613	     -0.84360471	     -0.02771868	     -0.27397493	     23.25737060	    -11.38573052	     -5.12044662	    -64.48131016	    -17.38565395	    -13.58770459	     22.88296306	     24.79162681	      9.90334356	     -5.79726979	    -19.99313322	      0.41992521	    -17.05578205	     -1.26853563	      8.53524744	     -6.58543130	      4.85261656
      3.97000000	    -12.09262367	      6.76838877	     -2.51260044	     -0.83650960	     -0.02646114	     -0.27475475	     23.98193412	    -11.17965858	     -5.26904918	    -64.62158697	    -16.43455264	    -13.23820306	     23.69023692	     23.98371338	      9.84791596	     -5.32397713	    -19.61202711	      0.59646332	    -17.20096724	     -1.43992177	      8.36958489	     -6.31269996	      4.54488224
      3.97500000	    -12.06457608	      6.41241230	     -2.29289414	     -0.82946708	     -0.02526701	     -0.27545513	     24.72803907	    -10.86404660	     -5.50292551	    -64.65820452	    -15.51770688	    -12.94372736	     24.05557541	     23.27264979	      9.66733379	     -4.90433809	    -19.29730170	      0.89209202	    -17.09495531	     -1.44019618	      8.25970960	     -5.96100500	      4.15495710
      3.98000000	    -12.00179096	      6.08930361	     -2.07038062	     -0.82242461	     -0.02408384	     -0.27620305	     25.41788260	    -10.60113631	     -5.73918241	    -64.61151170	    -14.57086248	    -12.56297475	     24.47841618	     22.50519026	      9.52834949	     -4.45902755	    -18.93234041	      1.12531564	    -17.08597097	     -1.51595257	      8.11781771	     -5.63964209	      3.77757148
      3.98500000	    -11.93051972	      5.76613623	     -1.83718439	     -0.81539731	     -0.02292166	     -0.27696076	     26.07120797	    -10.34258156	     -5.98767619	    -64.46872972	    -13.65182067	    -12.18359457	     24.92809656	     21.72112929	      9.38459801	     -4.01572158	    -18.54577540	      1.35004388	    -17.07558818	     -1.62283057	      7.96595097	     -5.31873122	      3.40198143
      3.99000000	    -11.74378009	      5.49305498	     -1.62209377	     -0.80831186	     -0.02165683	     -0.27780460	     26.56685843	    -10.15575448	     -6.21695221	    -64.18965443	    -12.88761432	    -11.87748942	     26.19289810	     20.76485680	      9.31137066	     -3.50705726	    -18.07311825	      1.56809615	    -17.18595361	     -2.27051750	      7.70619149	     -5.03714888	      3.06849072
      3.99500000	    -11.76031834	      5.13830616	     -1.35340885	     -0.80136937	     -0.02069194	     -0.27851074	     27.27090329	     -9.85949341	     -6.50463327	    -63.88197370	    -12.04265129	    -11.58376620	     26.54915748	     20.11017696	      9.09355510	     -3.17904404	    -17.73403259	      1.89087943	    -16.95067906	     -2.26140291	      7.63797340	     -4.69488787	      2.65227342
      4.00000000	    -11.68662675	      4.82433381	     -1.08660436	     -0.79435289	     -0.01967099	     -0.27927616	     27.84266239	     -9.62919783	     -6.79950140	    -63.47450671	    -11.21216534	    -11.26650054	     26.97947315	     19.31786100	      8.92745297	     -2.82633862	    -17.31254537	      2.14271647	    -16.81877705	     -2.30477813	      7.49088041	     -4.38842078	      2.27539440
      4.00500000	    -11.50607335	      4.50908630	     -0.86999853	     -0.78737251	     -0.01854353	     -0.27999377	     28.27016528	     -9.36553620	     -7.03059700	    -62.92684037	    -10.56022346	    -11.09890288	     28.04335584	     18.39095066	      8.74702040	     -2.45862060	    -16.84831382	      2.36159799	    -16.77527066	     -2.58683767	      7.22107753	     -4.07121004	      1.92798752
      4.01000000	    -11.53796305	      4.19324825	     -0.59394561	     -0.78040677	     -0.01775815	     -0.28070894	     28.92618197	     -9.11597913	     -7.29922136	    -62.37626388	     -9.84273359	    -10.85710471	     28.32255750	     17.73889156	      8.54297318	     -2.18290857	    -16.45224275	      2.63603216	    -16.53394292	     -2.53038682	      7.18083897	     -3.76257347	      1.52917488
      4.01500000	    -11.50615689	      3.87531079	     -0.35960521	     -0.77346539	     -0.01696242	     -0.28137504	     29.49694079	     -8.84476202	     -7.53224515	    -61.73869940	     -9.19881251	    -10.65791031	     28.55509915	     17.00887599	      8.32333108	     -1.91129683	    -16.02732277	      2.87638692	    -16.38480858	     -2.48373556	      7.07289391	     -3.44860188	      1.16319370
      4.02000000	    -11.45006339	      3.57582684	     -0.09560500	     -0.76650822	     -0.01618685	     -0.28204233	     30.00195661	     -8.60620862	     -7.78291581	    -61.01090040	     -8.60057105	    -10.50959442	     28.77106779	     16.25466689	      8.12032185	     -1.63109752	    -15.60131480	      3.07361019	    -16.20705750	     -2.43605147	      6.93740675	     -3.15868032	      0.78093798
      4.02500000	    -11.40578277	      3.28443872	      0.14909854	     -0.75955237	     -0.01551120	     -0.28268620	     30.50929641	     -8.36619953	     -8.00763743	    -60.21869282	     -8.10189320	    -10.41779423	     28.93333383	     15.51653107	      7.91482231	     -1.36433516	    -15.17355145	      3.27848941	    -16.06562037	     -2.39067161	      6.81809733	     -2.87227052	      0.42277892
      4.03000000	    -11.35577519	      3.00953762	      0.40156636	     -0.75259342	     -0.01491480	     -0.28332751	     30.98654170	     -8.15140339	     -8.24003613	    -59.35645745	     -7.67252371	    -10.38934745	     29.05045991	     14.77567336	      7.72211107	     -1.08837627	    -14.74854056	      3.48452689	    -15.93070426	     -2.35155042	      6.69343279	     -2.60588531	      0.08491971
      4.03500000	    -11.33783063	      2.74121290	      0.63548319	     -0.74565723	     -0.01441682	     -0.28389361	     31.48683541	     -7.91959025	     -8.41780320	    -58.43193038	     -7.33935218	    -10.38219927	     29.08948944	     14.08139607	      7.52041135	     -0.83194557	    -14.33515448	      3.66998879	    -15.81409477	     -2.33190294	      6.60025585	     -2.34438660	     -0.26684005
      4.04000000	    -11.32336543	      2.49195145	      0.86791163	     -0.73872382	     -0.01401213	     -0.28444408	     31.97013509	     -7.70847336	     -8.58710648	    -57.44513775	     -7.06803632	    -10.42420881	     29.05622562	     13.39582255	      7.33270686	     -0.58052989	    -13.92619879	      3.85780280	    -15.70807335	     -2.32898334	      6.51237177	     -2.10250050	     -0.59853401
      4.04500000	    -11.31715774	      2.26158069	      1.09604170	     -0.73179753	     -0.01369485	     -0.28495450	     32.44173046	     -7.51045364	     -8.73324468	    -56.39729091	     -6.85804894	    -10.49970945	     28.94758524	     12.72481397	      7.15608366	     -0.34297539	    -13.52245210	      4.04250423	    -15.60347797	     -2.34408355	      6.43171494	     -1.88157167	     -0.92246408
